<svg xmlns="http://www.w3.org/2000/svg" width="64" height="64" viewBox="0 0 64 64" fill="none">
<title>Tune Bit</title>
<rect x="4" y="4" width="56" height="56" rx="16" fill="#171717"/>
<path d="M15 24.5C15 23.6716 15.6716 23 16.5 23H28.5C29.3284 23 30 23.6716 30 24.5C30 25.3284 29.3284 26 28.5 26H16.5C15.6716 26 15 25.3284 15 24.5Z" fill="#F8F5EF" fill-opacity="0.22"/>
<path d="M15 31.5C15 30.6716 15.6716 30 16.5 30H28.5C29.3284 30 30 30.6716 30 31.5C30 32.3284 29.3284 33 28.5 33H16.5C15.6716 33 15 32.3284 15 31.5Z" fill="#F8F5EF" fill-opacity="0.22"/>
<path d="M15 38.5C15 37.6716 15.6716 37 16.5 37H28.5C29.3284 37 30 37.6716 30 38.5C30 39.3284 29.3284 40 28.5 40H16.5C15.6716 40 15 39.3284 15 38.5Z" fill="#F8F5EF" fill-opacity="0.22"/>
<path d="M38 16.5C38 15.6716 37.3284 15 36.5 15C35.6716 15 35 15.6716 35 16.5V39.5448C33.5094 39.1028 31.8052 38.8571 30 38.8571C25.5817 38.8571 22 41.3298 22 44.3809C22 47.432 25.5817 49.9048 30 49.9048C34.4183 49.9048 38 47.432 38 44.3809V27.7469L45.0404 25.3347C45.6443 25.1277 46.05 24.5596 46.05 23.9212V19.5956C46.05 18.5584 45.0237 17.832 44.0382 18.1772L38 20.2926V16.5Z" fill="#F8F5EF"/>
<rect x="40" y="34" width="8" height="8" rx="2.5" fill="#8B92FF"/>
</svg>
